# xmcd
#
# Track frame offsets:
#	150
#	14736
#	30964
#	45979
#	61144
#	76324
#	90807
#	105657
#	120677
#	135615
#	149574
#	163891
#	178687
#	193609
#	209173
#	224135
#	238421
#	252730
#	267894
#	282157
#
# Disc length: 3965 seconds
#
# Revision: 0
# Processed by: cddbd v1.5.2PL0 Copyright (c) Steve Scherf et al.
# Submitted via: EasyCDDAExtractor 16.0.6.1
#
DISCID=310f7b14
DTITLE=Συλλογικός δίσκος - Τα ρεμπέτικα Γ 1937-1960 13 Α
DYEAR=2010
DGENRE=Ρεμπέτικη
TTITLE0=Βαμβακάρης Μάρκος - Όλοι οι ρεμπέτες του ντουνιά [χασάπ., Μ. Βαμβακάρη
TTITLE0=ς, Αθ 1937]
TTITLE1=Περδικόπουλος Δημήτρης - Ο αμαξάς [συρτός, Δ. Περδικόπουλος, Αθήνα 11.
TTITLE1=1936]
TTITLE2=Περπινιάδης Στελλάκης-Τσιτσάνης Βασίλης - Για σένα ξενυχτώ [αλλέγκρο, 
TTITLE2=Β. Τσιτσάνης, Αθήνα 12.1937]
TTITLE3=Παγιουμτζής Στράτος-Περπινιάδης Στελλάκης - Θα κλέψω μιά μελαχροινή [κ
TTITLE3=ουλουρ., Δ. Γκόγκος, Αθ 4.1938]
TTITLE4=Χατζηχρήστος Απόστολος-Παπαϊωάννου Γ. - Ξανθιά Σμυρνιοτοπούλα [καλαματ
TTITLE4=, Α. Χατζηχρήστος, Αθ 1938]
TTITLE5=Παπαϊωάννου Γιάννης-Λουρετζής Χρήστος - Αφ' ότου μ' απαρνήθηκες [χασάπ
TTITLE5=, Γ. Παπαϊωάννου, Αθ 1937]
TTITLE6=Βαμβακάρης Μάρκος-Καρίβαλη Σοφία - Να γιατί περνώ [χασάπ., Β. Τσιτσάνη
TTITLE6=ς, Αθήνα 1.1937]
TTITLE7=Παγιουμτζής Στράτος-Ρούκουνας Κώστας - Για σένα μαυρομάτα μου [χασάπ. 
TTITLE7=Σ.Περιστέρης-Μ.Μάτσας, Αθ1937]
TTITLE8=Παγιουμτζής Στράτος-Περπινιάδης Στελλάκης - Ο Τσιτσάνης στο Μόντε Κάρλ
TTITLE8=ο [χασάπ., Β. Τσιτσάνης, Αθ 4.1938]
TTITLE9=Ρούκουνας Κώστας ή Σαμιωτάκης - Μόρτισσα Σμυρνιά [χασάπ., Κ. Καρίπης-Γ
TTITLE9=Πετροπουλέας, Αθ 1936]
TTITLE10=Περδικόπουλος Δημήτρης - Με λικέρ και με σαμπάνια [χασ. Β.Τσιτσάνης-Δ
TTITLE10=Περδικόπουλος,Αθ1937]
TTITLE11=Περπινιάδης Στελλάκης - Αμάν Κατερίνα μου [χασάπ., Παν. Τούντας, Αθήν
TTITLE11=α 1937]
TTITLE12=Αμπατζή Ρίτα-Περπινιάδης Στελλάκης - Απόψε να μην κοιμηθείς [χασάπ., 
TTITLE12=Β. Τσιτσάνης, Αθήνα 12.1938]
TTITLE13=Βαμβακάρης Μάρκος - Είμαι παιδάκι μάλαμα [ζεϊμπ., Σ. Περιστέρης-Μ. Μά
TTITLE13=τσας, Αθ 1937]
TTITLE14=Παγιουμτζής Στράτος - Προξενεύουν τον Σταμάτη [ζεϊμπ. Β.Τσιτσάνης-Σ.Π
TTITLE14=αγιουμτζής, Αθ1939]
TTITLE15=Κάβουρας Γιώργος - Πονώ δεν με λυπάσαι [ζεϊμπ., Κ. Σκαρβέλης, Αθήνα 1
TTITLE15=1937]
TTITLE16=Περπινιάδης Στελλάκης-Χρυσίνης Στέλιος - Τρικαλινή τσαχπίνα [χασαποσέ
TTITLE16=ρβ., Β. Τσιτσάνης, Αθήνα 4.1938]
TTITLE17=Παγιουμτζής Στράτος-Τσιτσάνης Βασίλης - Στα ταβερνιά θα τριγυρνώ [ζεϊ
TTITLE17=μπ., Β. Τσιτσάνης, Αθήνα 1938]
TTITLE18=Παγιουμτζής Στράτος-Τσιτσάνης Βασίλης - Αγαπώ μιά παντρεμένη [ζεϊμπ.,
TTITLE18=Β. Τσιτσάνης, Αθήνα 1939]
TTITLE19=Παγιουμτζής Στράτος-Χρυσίνης Παναγιώτης - Φαληριώτισσα [χασάπ., Γ. Πα
TTITLE19=παϊωάννου-Ευάγγ. Γρυπάρης, Αθ1937]
EXTD=
EXTT0=
EXTT1=
EXTT2=
EXTT3=
EXTT4=
EXTT5=
EXTT6=
EXTT7=
EXTT8=
EXTT9=
EXTT10=
EXTT11=
EXTT12=
EXTT13=
EXTT14=
EXTT15=
EXTT16=
EXTT17=
EXTT18=
EXTT19=
PLAYORDER=
